<svg preserveAspectRatio="none" width="100%" height="100%" overflow="visible" style="display: block;" viewBox="0 0 18 18" fill="none" xmlns="http://www.w3.org/2000/svg">
<g id="ic_depart_date_primary">
<path id="Vector" d="M12 1.5V4.5" stroke="var(--stroke-0, #2563EB)" stroke-width="1.2" stroke-linecap="round" stroke-linejoin="round"/>
<path id="Vector_2" d="M13.5 10.5L16.5 13.5L13.5 16.5M16.5 13.5L10.5 13.5" stroke="var(--stroke-0, #2563EB)" stroke-width="1.2" stroke-linecap="round" stroke-linejoin="round"/>
<path id="Vector_3" d="M15.75 8.5155V4.5C15.75 4.10218 15.592 3.72064 15.3107 3.43934C15.0294 3.15804 14.6478 3 14.25 3H3.75C3.35218 3 2.97064 3.15804 2.68934 3.43934C2.40804 3.72064 2.25 4.10218 2.25 4.5V15C2.25 15.3978 2.40804 15.7794 2.68934 16.0607C2.97064 16.342 3.35218 16.5 3.75 16.5H9.25725" stroke="var(--stroke-0, #2563EB)" stroke-width="1.2" stroke-linecap="round" stroke-linejoin="round"/>
<path id="Vector_4" d="M2.25 7.5H15.75" stroke="var(--stroke-0, #2563EB)" stroke-width="1.2" stroke-linecap="round" stroke-linejoin="round"/>
<path id="Vector_5" d="M6 1.5V4.5" stroke="var(--stroke-0, #2563EB)" stroke-width="1.2" stroke-linecap="round" stroke-linejoin="round"/>
</g>
</svg>
