<svg viewBox="0 0 32 32" fill="none" xmlns="http://www.w3.org/2000/svg"><path d="M4 14.6667H8C8.70724 14.6667 9.38552 14.9476 9.88562 15.4477C10.3857 15.9478 10.6667 16.6261 10.6667 17.3334V21.3334C10.6667 22.0406 10.3857 22.7189 9.88562 23.219C9.38552 23.7191 8.70724 24 8 24H6.66667C5.95942 24 5.28115 23.7191 4.78105 23.219C4.28095 22.7189 4 22.0406 4 21.3334V14.6667ZM4 14.6667C4 13.0908 4.31039 11.5304 4.91345 10.0745C5.5165 8.61858 6.40042 7.29571 7.51472 6.18141C8.62902 5.0671 9.95189 4.18319 11.4078 3.58013C12.8637 2.97708 14.4241 2.66669 16 2.66669C17.5759 2.66669 19.1363 2.97708 20.5922 3.58013C22.0481 4.18319 23.371 5.0671 24.4853 6.18141C25.5996 7.29571 26.4835 8.61858 27.0866 10.0745C27.6896 11.5304 28 13.0908 28 14.6667M28 14.6667V21.3334M28 14.6667H24C23.2928 14.6667 22.6145 14.9476 22.1144 15.4477C21.6143 15.9478 21.3333 16.6261 21.3333 17.3334V21.3334C21.3333 22.0406 21.6143 22.7189 22.1144 23.219C22.6145 23.7191 23.2928 24 24 24H25.3333C26.0406 24 26.7189 23.7191 27.219 23.219C27.7191 22.7189 28 22.0406 28 21.3334M28 21.3334V24C28 25.4145 27.4381 26.7711 26.4379 27.7713C25.4377 28.7715 24.0812 29.3334 22.6667 29.3334H16" stroke="white" stroke-opacity="0.96" stroke-width="2.22222" stroke-linecap="round" stroke-linejoin="round"/></svg>
